<svg xmlns="http://www.w3.org/2000/svg" width="390" height="844" viewBox="0 0 390 844">
  <rect width="390" height="844" fill="#f7f7fa"/>
  <rect x="8" y="8" width="374" height="828" rx="36" fill="#fff" stroke="#333" stroke-width="12"/>

  <rect x="24" y="60" width="166" height="36" rx="14" fill="#111"/>
  <rect x="200" y="60" width="166" height="36" rx="14" fill="#111"/>
  <text x="107" y="83" text-anchor="middle" font-family="Arial" font-size="13" fill="#fff">Back</text>
  <text x="283" y="83" text-anchor="middle" font-family="Arial" font-size="13" fill="#fff">Pdf</text>

  <rect x="18" y="112" width="354" height="144" rx="10" fill="#fff" stroke="#ececf1"/>
  <rect x="28" y="124" width="44" height="56" rx="8" fill="#9aa3b3"/>
  <rect x="318" y="124" width="36" height="36" rx="4" fill="#ddd"/>
  <text x="81" y="142" font-family="Courier New" font-size="12" fill="#222">Interstellar</text>
  <text x="81" y="160" font-family="Courier New" font-size="11" fill="#444">Seat Row: B</text>
  <text x="81" y="176" font-family="Courier New" font-size="11" fill="#444">Seat Nr: 12</text>
  <text x="81" y="192" font-family="Courier New" font-size="11" fill="#444">Date: 2026-05-16 19:30</text>
  <text x="81" y="208" font-family="Courier New" font-size="11" fill="#444">Venue: downtown_cinema</text>
  <text x="28" y="236" font-family="Arial" font-size="11" fill="#777">Long-press arms delete for this ticket row</text>

  <rect x="18" y="266" width="354" height="144" rx="10" fill="#fff" stroke="#ececf1"/>
  <rect x="28" y="278" width="44" height="56" rx="8" fill="#9aa3b3"/>
  <rect x="318" y="278" width="36" height="36" rx="4" fill="#ddd"/>
  <text x="81" y="296" font-family="Courier New" font-size="12" fill="#222">Interstellar</text>
  <text x="81" y="314" font-family="Courier New" font-size="11" fill="#444">Seat Row: B</text>
  <text x="81" y="330" font-family="Courier New" font-size="11" fill="#444">Seat Nr: 13</text>
  <text x="81" y="346" font-family="Courier New" font-size="11" fill="#444">Date: 2026-05-16 19:30</text>
  <text x="81" y="362" font-family="Courier New" font-size="11" fill="#444">Venue: downtown_cinema</text>

  <rect x="24" y="710" width="342" height="104" rx="10" fill="#fff" stroke="#e5e5e8"/>
  <text x="36" y="732" font-family="Arial" font-size="12" fill="#333">PDF modal flow:</text>
  <text x="36" y="750" font-family="Arial" font-size="12" fill="#333">1) Tap Pdf</text>
  <text x="36" y="768" font-family="Arial" font-size="12" fill="#333">2) Share/Close buttons in preview</text>
  <text x="36" y="786" font-family="Arial" font-size="12" fill="#333">3) Share returns + refresh toast</text>

  <text x="195" y="842" text-anchor="middle" font-family="Arial" font-size="10" fill="#666">Current UIKit wireframe from TicketsVC.swift</text>
</svg>

