<svg xmlns="http://www.w3.org/2000/svg" width="390" height="844" viewBox="0 0 390 844">
  <rect width="390" height="844" fill="#f5f5f7"/>
  <rect x="8" y="8" width="374" height="828" rx="36" fill="#fff" stroke="#333" stroke-width="12"/>
  <rect x="24" y="60" width="342" height="36" rx="14" fill="#111"/>
  <text x="60" y="83" font-family="Arial" font-size="13" fill="#fff">Back</text>
  <text x="290" y="83" font-family="Arial" font-size="13" fill="#fff">Update</text>

  <rect x="30" y="112" width="330" height="92" rx="10" fill="#fafafb" stroke="#e5e5e8"/>
  <text x="44" y="131" font-family="Arial" font-size="12" fill="#333">Movie + Venue Select</text>
  <rect x="44" y="140" width="210" height="26" rx="6" fill="#fff" stroke="#d2d2d7"/>
  <rect x="260" y="140" width="66" height="26" rx="6" fill="#e9eaee"/>
  <rect x="44" y="172" width="210" height="26" rx="6" fill="#fff" stroke="#d2d2d7"/>
  <rect x="260" y="172" width="66" height="26" rx="6" fill="#e9eaee"/>

  <rect x="30" y="214" width="330" height="78" rx="10" fill="#fafafb" stroke="#e5e5e8"/>
  <text x="44" y="234" font-family="Arial" font-size="12" fill="#333">When To Show (Screening Date)</text>
  <rect x="44" y="244" width="282" height="30" rx="6" fill="#fff" stroke="#d2d2d7"/>

  <rect x="30" y="302" width="330" height="96" rx="10" fill="#fafafb" stroke="#e5e5e8"/>
  <text x="44" y="322" font-family="Arial" font-size="12" fill="#333">Theater Capacity (current storyboard mismatch risk)</text>
  <rect x="44" y="334" width="130" height="30" rx="6" fill="#fff" stroke="#d2d2d7"/>
  <rect x="196" y="334" width="130" height="30" rx="6" fill="#fff" stroke="#d2d2d7"/>

  <rect x="30" y="408" width="330" height="110" rx="10" fill="#fafafb" stroke="#e5e5e8"/>
  <text x="44" y="428" font-family="Arial" font-size="12" fill="#333">Screen Details</text>
  <rect x="44" y="438" width="150" height="30" rx="6" fill="#fff" stroke="#d2d2d7"/>
  <text x="44" y="484" font-family="Arial" font-size="12" fill="#666">Category (optional)</text>
  <rect x="44" y="490" width="220" height="28" rx="6" fill="#fff" stroke="#d2d2d7"/>

  <rect x="24" y="780" width="342" height="38" rx="14" fill="#111"/>
  <text x="188" y="804" text-anchor="middle" font-family="Arial" font-size="14" fill="#fff">Save</text>

  <text x="195" y="842" text-anchor="middle" font-family="Arial" font-size="10" fill="#666">Current UIKit wireframe from AdminVC.swift</text>
</svg>

